<svg width="50" height="50" viewBox="0 0 50 50" fill="none" xmlns="http://www.w3.org/2000/svg">
<g clip-path="url(#clip0_150_44)">
<path d="M28.125 17.1875C28.125 16.7731 27.9604 16.3757 27.6674 16.0826C27.3743 15.7896 26.9769 15.625 26.5625 15.625C26.1481 15.625 25.7507 15.7896 25.4576 16.0826C25.1646 16.3757 25 16.7731 25 17.1875V21.875H20.3125C19.8981 21.875 19.5007 22.0396 19.2076 22.3326C18.9146 22.6257 18.75 23.0231 18.75 23.4375C18.75 23.8519 18.9146 24.2493 19.2076 24.5424C19.5007 24.8354 19.8981 25 20.3125 25H25V29.6875C25 30.1019 25.1646 30.4993 25.4576 30.7924C25.7507 31.0854 26.1481 31.25 26.5625 31.25C26.9769 31.25 27.3743 31.0854 27.6674 30.7924C27.9604 30.4993 28.125 30.1019 28.125 29.6875V25H32.8125C33.2269 25 33.6243 24.8354 33.9174 24.5424C34.2104 24.2493 34.375 23.8519 34.375 23.4375C34.375 23.0231 34.2104 22.6257 33.9174 22.3326C33.6243 22.0396 33.2269 21.875 32.8125 21.875H28.125V17.1875Z" fill="#B71A25"/>
<path d="M1.5625 3.125C1.1481 3.125 0.750671 3.28962 0.457646 3.58265C0.16462 3.87567 0 4.2731 0 4.6875C0 5.1019 0.16462 5.49933 0.457646 5.79235C0.750671 6.08538 1.1481 6.25 1.5625 6.25H5.03125L6.28437 11.2719L10.9656 36.225C11.0327 36.5831 11.2227 36.9064 11.5028 37.1392C11.783 37.3721 12.1357 37.4997 12.5 37.5H15.625C13.9674 37.5 12.3777 38.1585 11.2056 39.3306C10.0335 40.5027 9.375 42.0924 9.375 43.75C9.375 45.4076 10.0335 46.9973 11.2056 48.1694C12.3777 49.3415 13.9674 50 15.625 50C17.2826 50 18.8723 49.3415 20.0444 48.1694C21.2165 46.9973 21.875 45.4076 21.875 43.75C21.875 42.0924 21.2165 40.5027 20.0444 39.3306C18.8723 38.1585 17.2826 37.5 15.625 37.5H37.5C35.8424 37.5 34.2527 38.1585 33.0806 39.3306C31.9085 40.5027 31.25 42.0924 31.25 43.75C31.25 45.4076 31.9085 46.9973 33.0806 48.1694C34.2527 49.3415 35.8424 50 37.5 50C39.1576 50 40.7473 49.3415 41.9194 48.1694C43.0915 46.9973 43.75 45.4076 43.75 43.75C43.75 42.0924 43.0915 40.5027 41.9194 39.3306C40.7473 38.1585 39.1576 37.5 37.5 37.5H40.625C40.9893 37.4997 41.342 37.3721 41.6222 37.1392C41.9023 36.9064 42.0923 36.5831 42.1594 36.225L46.8469 11.225C46.8891 10.9995 46.8811 10.7675 46.8235 10.5454C46.766 10.3233 46.6602 10.1166 46.5137 9.94001C46.3673 9.76342 46.1837 9.62125 45.9761 9.5236C45.7685 9.42595 45.5419 9.37521 45.3125 9.375H9.03125L7.76562 4.30937C7.68128 3.9712 7.48629 3.67093 7.21166 3.45633C6.93703 3.24172 6.59853 3.1251 6.25 3.125H1.5625ZM13.7969 34.375L9.69375 12.5H43.4312L39.3281 34.375H13.7969V34.375ZM18.75 43.75C18.75 44.5788 18.4208 45.3737 17.8347 45.9597C17.2487 46.5458 16.4538 46.875 15.625 46.875C14.7962 46.875 14.0013 46.5458 13.4153 45.9597C12.8292 45.3737 12.5 44.5788 12.5 43.75C12.5 42.9212 12.8292 42.1263 13.4153 41.5403C14.0013 40.9542 14.7962 40.625 15.625 40.625C16.4538 40.625 17.2487 40.9542 17.8347 41.5403C18.4208 42.1263 18.75 42.9212 18.75 43.75V43.75ZM40.625 43.75C40.625 44.5788 40.2958 45.3737 39.7097 45.9597C39.1237 46.5458 38.3288 46.875 37.5 46.875C36.6712 46.875 35.8763 46.5458 35.2903 45.9597C34.7042 45.3737 34.375 44.5788 34.375 43.75C34.375 42.9212 34.7042 42.1263 35.2903 41.5403C35.8763 40.9542 36.6712 40.625 37.5 40.625C38.3288 40.625 39.1237 40.9542 39.7097 41.5403C40.2958 42.1263 40.625 42.9212 40.625 43.75V43.75Z" fill="#B71A25"/>
</g>
<defs>
<clipPath id="clip0_150_44">
<rect width="50" height="50" fill="white"/>
</clipPath>
</defs>
</svg>
