<svg width="50" height="50" viewBox="0 0 50 50" fill="none" xmlns="http://www.w3.org/2000/svg">
<path d="M39.5834 8.3335H10.4167C8.75915 8.3335 7.16943 8.99198 5.99733 10.1641C4.82523 11.3362 4.16675 12.9259 4.16675 14.5835V35.4168C4.16675 37.0744 4.82523 38.6641 5.99733 39.8362C7.16943 41.0084 8.75915 41.6668 10.4167 41.6668H39.5834C41.241 41.6668 42.8307 41.0084 44.0028 39.8362C45.1749 38.6641 45.8334 37.0744 45.8334 35.4168V14.5835C45.8334 12.9259 45.1749 11.3362 44.0028 10.1641C42.8307 8.99198 41.241 8.3335 39.5834 8.3335ZM38.1876 12.5002L25.0001 22.396L11.8126 12.5002H38.1876ZM39.5834 37.5002H10.4167C9.86421 37.5002 9.33431 37.2807 8.94361 36.89C8.55291 36.4993 8.33342 35.9694 8.33342 35.4168V15.1043L23.7501 26.6668C24.1107 26.9373 24.5493 27.0835 25.0001 27.0835C25.4509 27.0835 25.8895 26.9373 26.2501 26.6668L41.6668 15.1043V35.4168C41.6668 35.9694 41.4473 36.4993 41.0566 36.89C40.6659 37.2807 40.136 37.5002 39.5834 37.5002Z" fill="#B71A25"/>
</svg>
