<svg width="50" height="50" viewBox="0 0 50 50" fill="none" xmlns="http://www.w3.org/2000/svg">
<path d="M42.5208 12.2708L34.1874 8.52075H34.0833H33.8333H33.5833H33.0624H32.8541H32.5833H32.4791L24.9999 11.8749L17.5208 8.52075H17.4166L17.1666 8.33325H16.9166H16.3958H16.1874H15.9166L7.58327 12.0833C7.16762 12.2425 6.81391 12.5307 6.57396 12.9056C6.33402 13.2805 6.22046 13.7224 6.24993 14.1666V39.5833C6.25051 39.9318 6.33855 40.2747 6.50598 40.5804C6.67341 40.8862 6.91488 41.145 7.20827 41.3333C7.54359 41.5499 7.93408 41.6656 8.33327 41.6666C8.62805 41.6652 8.91918 41.6013 9.18743 41.4791L16.6666 38.1249L24.1458 41.4791H24.2499C24.4847 41.5889 24.7407 41.6458 24.9999 41.6458C25.2591 41.6458 25.5151 41.5889 25.7499 41.4791H25.8541L33.3333 38.1249L40.8124 41.4791C41.0807 41.6013 41.3718 41.6652 41.6666 41.6666C42.0658 41.6656 42.4563 41.5499 42.7916 41.3333C43.085 41.145 43.3265 40.8862 43.4939 40.5804C43.6613 40.2747 43.7494 39.9318 43.7499 39.5833V14.1666C43.7491 13.7658 43.6327 13.3738 43.4147 13.0376C43.1967 12.7013 42.8863 12.4351 42.5208 12.2708ZM18.7499 13.6458L22.9166 15.4999V36.3333L18.7499 34.4791V13.6458ZM39.5833 36.3541L35.4166 34.4999V13.6666L39.5833 15.5208V36.3541Z" fill="#B71A25"/>
</svg>
