<svg width="70" height="50" viewBox="0 0 70 50" fill="none" xmlns="http://www.w3.org/2000/svg">
<path d="M33.5196 45.6669C24.6332 45.6559 16.1141 42.2721 9.8304 36.2577C3.54674 30.2433 0.0115184 22.0892 0 13.5836C0 11.0419 1.05487 8.60436 2.93255 6.80713C4.81023 5.00991 7.35692 4.00024 10.0124 4.00024C10.5747 3.99614 11.136 4.04498 11.6883 4.14607C12.2223 4.2217 12.7472 4.3473 13.2555 4.52107C13.613 4.64113 13.9316 4.84843 14.1797 5.12247C14.4278 5.39651 14.5969 5.7278 14.6703 6.08357L17.6522 18.5836C17.7326 18.9229 17.7229 19.276 17.6241 19.6108C17.5252 19.9456 17.3403 20.2514 17.0863 20.5002C16.8034 20.7919 16.7816 20.8127 14.1044 22.1461C16.2483 26.6479 20.0099 30.2631 24.7044 32.3336C26.1192 29.7502 26.141 29.7294 26.4457 29.4586C26.7057 29.2154 27.0251 29.0385 27.3749 28.9439C27.7247 28.8492 28.0937 28.84 28.4482 28.9169L41.5078 31.7711C41.8676 31.851 42.2002 32.0172 42.4744 32.2541C42.7485 32.491 42.9552 32.7908 43.0749 33.1252C43.2586 33.6197 43.397 34.1286 43.4885 34.6461C43.5761 35.1697 43.6197 35.6991 43.6191 36.2294C43.5789 38.7602 42.4944 41.173 40.6022 42.9412C38.7101 44.7093 36.1639 45.6892 33.5196 45.6669V45.6669Z" fill="#B71A25"/>
</svg>
