<svg width="60" height="55" viewBox="0 0 60 55" fill="none" xmlns="http://www.w3.org/2000/svg">
<path d="M52.7 15.7781C52.268 15.1033 51.6494 14.541 50.9046 14.1459C50.1597 13.7509 49.314 13.5366 48.45 13.5241H16.45L15 8.43003C14.8535 7.93829 14.5267 7.50576 14.0727 7.20289C13.6187 6.90001 13.0644 6.74463 12.5 6.76206H7.5C6.83696 6.76206 6.20107 6.99954 5.73223 7.42225C5.26339 7.84496 5 8.41828 5 9.01608C5 9.61388 5.26339 10.1872 5.73223 10.6099C6.20107 11.0326 6.83696 11.2701 7.5 11.2701H10.6L17.5 34.3963C17.6465 34.888 17.9733 35.3205 18.4273 35.6234C18.8813 35.9263 19.4356 36.0817 20 36.0642H42.5C42.9617 36.063 43.4139 35.9465 43.8067 35.7277C44.1994 35.5088 44.5172 35.1962 44.725 34.8245L52.925 20.0382C53.2804 19.3665 53.4459 18.626 53.4066 17.8826C53.3673 17.1393 53.1246 16.4163 52.7 15.7781V15.7781Z" fill="#B71A25"/>
<path d="M18.75 47.3343C20.8211 47.3343 22.5 45.8206 22.5 43.9533C22.5 42.086 20.8211 40.5723 18.75 40.5723C16.6789 40.5723 15 42.086 15 43.9533C15 45.8206 16.6789 47.3343 18.75 47.3343Z" fill="#B71A25"/>
<path d="M43.75 47.3343C45.8211 47.3343 47.5 45.8206 47.5 43.9533C47.5 42.086 45.8211 40.5723 43.75 40.5723C41.6789 40.5723 40 42.086 40 43.9533C40 45.8206 41.6789 47.3343 43.75 47.3343Z" fill="#B71A25"/>
</svg>
